<svg xmlns="http://www.w3.org/2000/svg" width="17.822" height="23.768" viewBox="0 0 17.822 23.768">
  <path id="Forma_1" data-name="Forma 1" d="M642.934,786.241c.186-.006.327-.013.423-.016v2.816a10.552,10.552,0,0,1-1.073-.1,1.126,1.126,0,0,1-.628-.272,1.307,1.307,0,0,1-.33-.957c0-.686.142-1.1.429-1.241a1.572,1.572,0,0,1,.352-.137,2.484,2.484,0,0,1,.367-.068C642.593,786.258,642.747,786.249,642.934,786.241Zm-2.957-5.372h7.9a.875.875,0,0,0,0-1.749h-7.9a.875.875,0,0,0,0,1.749Zm.239-2.189h7.429a2.26,2.26,0,0,0,.456-1.131c.106-.868.766-3.1,0-3.5-.692-.357-1.729,1.927-2.5,1.867-.588-.045-1.078-1.7-1.668-1.7-.619,0-1.133,1.746-1.751,1.782-.769.045-1.724-2.294-2.419-1.952-.773.38-.106,2.628,0,3.5A2.236,2.236,0,0,0,640.216,778.681Zm5.536,12.143a7.2,7.2,0,0,0-1.289-.108v2.946a3.56,3.56,0,0,0,1.619-.251,1.526,1.526,0,0,0,.341-.382,1.632,1.632,0,0,0,.142-.8,1.925,1.925,0,0,0-.2-1A.937.937,0,0,0,645.752,790.823Zm6.778,6.583a1.178,1.178,0,0,1-1.683.035,1.28,1.28,0,0,1-.119-.136h-13.6a.986.986,0,0,1-.061.082,1.173,1.173,0,0,1-1.679.082,1.235,1.235,0,0,1,.314-1.978V785.175a2.74,2.74,0,0,1,1.133-2.075l2.853-1.806a2.428,2.428,0,0,0,.253.019h7.98c.087,0,.169-.011.253-.019l2.853,1.806a2.736,2.736,0,0,1,1.133,2.075V795.5a1.218,1.218,0,0,1,.374,1.907Zm-4.07-5.239a3.271,3.271,0,0,0-.676-2.338,2.534,2.534,0,0,0-1.228-.577,15.11,15.11,0,0,0-2.093-.211v-2.816c.081.009.244.014.49.018a4.214,4.214,0,0,1,.6.042,1.183,1.183,0,0,1,.442.163.687.687,0,0,1,.288.405,2.889,2.889,0,0,1,.089.833H648.1a5.142,5.142,0,0,0-.21-1.63,1.817,1.817,0,0,0-.644-.915,2.608,2.608,0,0,0-1.069-.419,12.559,12.559,0,0,0-1.715-.146v-1.011h-1.107v1.011a10.732,10.732,0,0,0-2.05.161,2.187,2.187,0,0,0-1.311.784,3.543,3.543,0,0,0-.54,2.2,3.257,3.257,0,0,0,.384,1.76,1.945,1.945,0,0,0,.607.6,2.93,2.93,0,0,0,.8.335,8.1,8.1,0,0,0,1.019.18l1.086.125v2.946c-.37,0-.748-.018-1.135-.054a1.475,1.475,0,0,1-.619-.189.985.985,0,0,1-.364-.477,3.77,3.77,0,0,1-.112-1.154h-1.729a7.632,7.632,0,0,0,.147,1.7,2.035,2.035,0,0,0,.671,1.069,2.728,2.728,0,0,0,1.286.594,9.715,9.715,0,0,0,1.854.155v1.1h1.107v-1.1a6.307,6.307,0,0,0,2.78-.495C648.03,794.423,648.434,793.541,648.46,792.167Z" transform="translate(-635.018 -774.016)" fill="#fff"/>
</svg>
