<svg xmlns="http://www.w3.org/2000/svg" width="35.029" height="21.136" viewBox="0 0 35.029 21.136">
  <path id="Forma_1" data-name="Forma 1" d="M230.141,789.755v-.39l-3.155-10.784H220V776H203.221v6.674h-3.574l-1.511,2.1h5.085v1.573h-5.715l-1.511,2.1h7.226v1.311h-.8v3.539h.8v.525h.546a3.8,3.8,0,0,0,7.544,0h8.6a3.8,3.8,0,0,0,7.544,0h2.686v-.525h.883v-3.539Zm-22.6,5.511a2.112,2.112,0,1,1,2.028-2.111A2.074,2.074,0,0,1,207.538,795.266Zm16.144,0a2.112,2.112,0,1,1,2.028-2.111A2.074,2.074,0,0,1,223.683,795.266Zm-1.877-10.032v-4.776h3.846l1.4,4.776Z" transform="translate(-195.994 -776.004)" fill="#fff"/>
</svg>
