<svg xmlns="http://www.w3.org/2000/svg" width="22.464" height="22.472" viewBox="0 0 22.464 22.472">
  <path id="Forma_1" data-name="Forma 1" d="M1486.3,787.211h1.872v6.527a3.744,3.744,0,0,1-7.488,0,.936.936,0,0,1,1.872,0,1.872,1.872,0,0,0,3.744,0ZM1488.168,777v-2H1486.3v2c-5.744.435-10.3,4.817-10.3,10.215l.562-.281a7.381,7.381,0,0,1,6.271,0l.655.281.656-.281a6.776,6.776,0,0,1,6.271,0l.561.281.656-.281a6.776,6.776,0,0,1,6.271,0l.561.281C1498.464,781.813,1493.912,777.431,1488.168,777Z" transform="translate(-1476 -774.995)" fill="#fff"/>
</svg>
