<svg xmlns="http://www.w3.org/2000/svg" width="21.816" height="22.461" viewBox="0 0 21.816 22.461">
  <path id="Forma_1" data-name="Forma 1" d="M1.559,22.461H0V2.656l3.119.039v.792a2.337,2.337,0,1,0,4.674,0V2.695H14.03v.792a2.337,2.337,0,1,0,4.673,0V2.695h3.091l.023,19.762-1.558,0Zm0-1.578h18.7V8.232H1.559ZM15.454,19.51v-2.2h2.458v2.2Zm-3.687,0v-2.2h2.458v2.2Zm-3.971,0v-2.2h2.458v2.2Zm-3.9,0v-2.2H6.35v2.2Zm11.556-3.726v-2.2h2.458v2.2Zm-3.687,0v-2.2h2.458v2.2Zm-3.971,0v-2.2h2.458v2.2Zm-3.9,0v-2.2H6.35v2.2ZM15.454,12.13v-2.2h2.458v2.2Zm-3.687,0v-2.2h2.458v2.2Zm-3.971,0v-2.2h2.458v2.2ZM14.8,3.186V1.558a1.535,1.535,0,1,1,3.07,0V3.185a1.535,1.535,0,1,1-3.07,0ZM3.9,3.186V1.558a1.535,1.535,0,1,1,3.07,0V3.185a1.535,1.535,0,1,1-3.07,0Z" fill="#fff"/>
</svg>
