<svg xmlns="http://www.w3.org/2000/svg" xmlns:xlink="http://www.w3.org/1999/xlink" width="52" height="52" viewBox="0 0 52 52">
  <defs>
    <clipPath id="clip-path">
      <rect id="Rectangle_3632" data-name="Rectangle 3632" width="23.365" height="23.371" fill="#e2c164"/>
    </clipPath>
  </defs>
  <g id="Group_8150" data-name="Group 8150" transform="translate(-85 -442)">
    <g id="Ellipse_584" data-name="Ellipse 584" transform="translate(85 442)" fill="#fff" stroke="#707070" stroke-width="1" opacity="0.2">
      <circle cx="26" cy="26" r="26" stroke="none"/>
      <circle cx="26" cy="26" r="25.5" fill="none"/>
    </g>
    <g id="Group_8151" data-name="Group 8151" transform="translate(99.318 456.314)">
      <g id="Group_8151-2" data-name="Group 8151" clip-path="url(#clip-path)">
        <path id="Path_13194" data-name="Path 13194" d="M.6,120.18a.853.853,0,0,1-.6-.931q.012-6.377,0-12.753a.811.811,0,0,1,.625-.933q3.488-1.4,6.975-2.8a1.069,1.069,0,0,1,.856,0c1.378.561,2.761,1.109,4.141,1.664a.734.734,0,1,1-.533,1.358c-1.023-.406-2.044-.817-3.066-1.226-.069-.028-.139-.052-.228-.085,0,.092-.01.164-.01.237q0,5.544,0,11.088c0,.131-.006.236.159.3q2.785,1.1,5.563,2.217c.027.011.055.02.119.042v-.276q0-3.616,0-7.232a1.681,1.681,0,0,1,.013-.3.728.728,0,0,1,1.439.049,2.307,2.307,0,0,1,.007.273q0,3.593,0,7.187v.292c.082-.028.146-.047.208-.071q2.717-1.085,5.435-2.168a.268.268,0,0,0,.2-.3q-.008-3.947,0-7.894a1.346,1.346,0,0,1,.041-.382.674.674,0,0,1,.614-.5.7.7,0,0,1,.706.366c.035.057.065.116.1.174v9.082a.994.994,0,0,1-.665.628q-2.419.956-4.832,1.929c-.785.315-1.567.638-2.351.957h-.365a.216.216,0,0,0-.05-.041q-3.443-1.376-6.888-2.745a.536.536,0,0,0-.359,0q-2.391.943-4.775,1.9c-.722.29-1.442.587-2.163.881ZM7.3,104.472c-.094.034-.163.058-.232.085-1.8.719-3.592,1.441-5.392,2.152a.294.294,0,0,0-.22.329q.009,5.532,0,11.064v.262l.242-.093c1.79-.716,3.579-1.435,5.372-2.143a.308.308,0,0,0,.231-.345q-.008-5.521,0-11.042Z" transform="translate(0 -96.809)" fill="#e2c164"/>
        <path id="Path_13195" data-name="Path 13195" d="M240.427,5.345a8.034,8.034,0,0,1-1.079,2.83,27.976,27.976,0,0,1-2.938,4.084c-.176.209-.349.422-.534.623a.713.713,0,0,1-1.118,0,26.906,26.906,0,0,1-3.837-5.391,5.778,5.778,0,0,1-.678-2.018,4.679,4.679,0,0,1,.9-3.288A5.03,5.03,0,0,1,237.663.592a4.956,4.956,0,0,1,2.716,3.848c.012.074.032.147.048.221Zm-5.14,5.938c.043-.019.061-.022.069-.032a23.392,23.392,0,0,0,3.24-4.8A3.134,3.134,0,0,0,238.963,5a3.66,3.66,0,0,0-4.158-3.5,3.535,3.535,0,0,0-2.72,5.071,25.283,25.283,0,0,0,1.977,3.138c.4.535.819,1.051,1.225,1.569" transform="translate(-217.062 0)" fill="#e2c164"/>
        <path id="Path_13199" data-name="Path 13199" d="M285.531,53.423a2.188,2.188,0,1,1-2.2-2.187,2.212,2.212,0,0,1,2.2,2.187m-2.2-.727a.728.728,0,1,0,.737.714.732.732,0,0,0-.737-.714" transform="translate(-265.088 -48.308)" fill="#e2c164"/>
      </g>
    </g>
  </g>
</svg>
