<svg xmlns="http://www.w3.org/2000/svg" width="52" height="52" viewBox="0 0 52 52">
  <g id="Group_8148" data-name="Group 8148" transform="translate(-85 -442)">
    <g id="Ellipse_584" data-name="Ellipse 584" transform="translate(85 442)" fill="#fff" stroke="#707070" stroke-width="1" opacity="0.2">
      <circle cx="26" cy="26" r="26" stroke="none"/>
      <circle cx="26" cy="26" r="25.5" fill="none"/>
    </g>
    <path id="Icon_feather-phone" data-name="Icon feather-phone" d="M21.653,24.593c-.092,0-.185,0-.276-.012l-.018,0a21.555,21.555,0,0,1-9.35-3.325,21.29,21.29,0,0,1-6.5-6.5A21.552,21.552,0,0,1,2.182,5.358l0-.016A3.067,3.067,0,0,1,5.232,2H8.353a3.081,3.081,0,0,1,3.036,2.638v.009a12.285,12.285,0,0,0,.669,2.685,3.075,3.075,0,0,1-.691,3.233l0,0-.76.76a15.543,15.543,0,0,0,4.786,4.786l.76-.76,0,0a3.066,3.066,0,0,1,3.235-.69,12.28,12.28,0,0,0,2.683.668h.009a3.066,3.066,0,0,1,2.638,3.1v3.089a3.067,3.067,0,0,1-3.067,3.075Zm-.088-2a1.067,1.067,0,0,0,1.155-1.067v-3.1q0-.012,0-.025a1.067,1.067,0,0,0-.913-1.082,14.29,14.29,0,0,1-3.118-.777,1.066,1.066,0,0,0-1.127.238l-1.309,1.309a1,1,0,0,1-1.2.162,17.542,17.542,0,0,1-6.575-6.575,1,1,0,0,1,.162-1.2l1.31-1.31a1.07,1.07,0,0,0,.239-1.124,14.294,14.294,0,0,1-.778-3.12A1.071,1.071,0,0,0,8.353,4H5.233A1.067,1.067,0,0,0,4.172,5.156a19.543,19.543,0,0,0,3.016,8.512l0,.007a19.275,19.275,0,0,0,5.892,5.892l.008,0A19.546,19.546,0,0,0,21.564,22.589Z" transform="translate(97.557 454.704)" fill="#e2c164"/>
  </g>
</svg>
