<svg xmlns="http://www.w3.org/2000/svg" width="27" height="19" viewBox="0 0 27 19">
  <g id="Group_5911" data-name="Group 5911" transform="translate(-71.5 -29.5)">
    <path id="Line_53" data-name="Line 53" d="M19,1.5H0A1.5,1.5,0,0,1-1.5,0,1.5,1.5,0,0,1,0-1.5H19A1.5,1.5,0,0,1,20.5,0,1.5,1.5,0,0,1,19,1.5Z" transform="translate(73 31)" fill="#e2c164"/>
    <path id="Line_54" data-name="Line 54" d="M19,1.5H0A1.5,1.5,0,0,1-1.5,0,1.5,1.5,0,0,1,0-1.5H19A1.5,1.5,0,0,1,20.5,0,1.5,1.5,0,0,1,19,1.5Z" transform="translate(78 39)" fill="#e2c164"/>
    <path id="Line_55" data-name="Line 55" d="M19,1.5H0A1.5,1.5,0,0,1-1.5,0,1.5,1.5,0,0,1,0-1.5H19A1.5,1.5,0,0,1,20.5,0,1.5,1.5,0,0,1,19,1.5Z" transform="translate(73 47)" fill="#e2c164"/>
  </g>
</svg>
