<svg xmlns="http://www.w3.org/2000/svg" xmlns:xlink="http://www.w3.org/1999/xlink" width="42" height="42" viewBox="0 0 42 42">
  <defs>
    <filter id="Ellipse_132" x="0" y="0" width="42" height="42" filterUnits="userSpaceOnUse">
      <feOffset dy="3" input="SourceAlpha"/>
      <feGaussianBlur stdDeviation="3" result="blur"/>
      <feFlood flood-opacity="0.161"/>
      <feComposite operator="in" in2="blur"/>
      <feComposite in="SourceGraphic"/>
    </filter>
  </defs>
  <g id="Group_5931" data-name="Group 5931" transform="translate(-242 -1338)">
    <g transform="matrix(1, 0, 0, 1, 242, 1338)" filter="url(#Ellipse_132)">
      <circle id="Ellipse_132-2" data-name="Ellipse 132" cx="12" cy="12" r="12" transform="translate(9 6)" fill="#fff"/>
    </g>
    <path id="Icon_feather-heart" data-name="Icon feather-heart" d="M11.521,1.665a4.325,4.325,0,0,1,3.058,7.384L8.562,15.066a.581.581,0,0,1-.822,0L1.724,9.049A4.325,4.325,0,0,1,7.841,2.932l.311.311.311-.311A4.3,4.3,0,0,1,11.521,1.665ZM8.152,13.833l5.606-5.606A3.163,3.163,0,1,0,9.284,3.754l-.722.722a.581.581,0,0,1-.822,0l-.721-.721A3.163,3.163,0,1,0,2.546,8.227Z" transform="translate(254.848 1347.55)" fill="#e2c164"/>
  </g>
</svg>
