<svg xmlns="http://www.w3.org/2000/svg" xmlns:xlink="http://www.w3.org/1999/xlink" width="49" height="49" viewBox="0 0 49 49">
  <defs>
    <filter id="Ellipse_127" x="0" y="0" width="49" height="49" filterUnits="userSpaceOnUse">
      <feOffset dy="3" input="SourceAlpha"/>
      <feGaussianBlur stdDeviation="3" result="blur"/>
      <feFlood flood-opacity="0.161"/>
      <feComposite operator="in" in2="blur"/>
      <feComposite in="SourceGraphic"/>
    </filter>
  </defs>
  <g id="Group_8142" data-name="Group 8142" transform="translate(-1155 -271)">
    <g transform="matrix(1, 0, 0, 1, 1155, 271)" filter="url(#Ellipse_127)">
      <circle id="Ellipse_127-2" data-name="Ellipse 127" cx="15.5" cy="15.5" r="15.5" transform="translate(9 6)" fill="#fff"/>
    </g>
    <path id="Icon_feather-heart" data-name="Icon feather-heart" d="M14.543,1.665a5.507,5.507,0,0,1,3.894,9.4l-7.66,7.66a.74.74,0,0,1-1.046,0L2.07,11.067A5.507,5.507,0,0,1,9.858,3.279l.4.4.4-.4A5.47,5.47,0,0,1,14.543,1.665Zm-4.29,15.493,7.137-7.137a4.028,4.028,0,1,0-5.7-5.7l-.919.919a.74.74,0,0,1-1.046,0l-.919-.919a4.028,4.028,0,1,0-5.7,5.7Z" transform="translate(1169.412 283.562)" fill="#e2c164"/>
  </g>
</svg>
