<svg xmlns="http://www.w3.org/2000/svg" width="18" height="18" viewBox="0 0 18 18">
  <g id="Icon_feather-search" data-name="Icon feather-search" transform="translate(-11 -9)">
    <path id="Union_1" data-name="Union 1" d="M-303.209-76.764l-3.307-3.307a8.039,8.039,0,0,1-5.057,1.771,8.048,8.048,0,0,1-5.728-2.372,8.048,8.048,0,0,1-2.372-5.728,8.048,8.048,0,0,1,2.372-5.728,8.048,8.048,0,0,1,5.728-2.372,8.048,8.048,0,0,1,5.728,2.372,8.048,8.048,0,0,1,2.372,5.728,8.039,8.039,0,0,1-1.771,5.057l3.307,3.307a.9.9,0,0,1,0,1.273.9.9,0,0,1-.636.264A.9.9,0,0,1-303.209-76.764ZM-317.873-86.4a6.307,6.307,0,0,0,6.3,6.3,6.279,6.279,0,0,0,4.383-1.779.921.921,0,0,1,.065-.072.914.914,0,0,1,.073-.065,6.279,6.279,0,0,0,1.779-4.383,6.307,6.307,0,0,0-6.3-6.3A6.307,6.307,0,0,0-317.873-86.4Z" transform="translate(330.673 103.5)" fill="#fff"/>
  </g>
</svg>
