<svg xmlns="http://www.w3.org/2000/svg" width="23.143" height="22.167" viewBox="0 0 23.143 22.167">
  <g id="Icon_feather-shopping-cart" data-name="Icon feather-shopping-cart" transform="translate(0.833 0.833)">
    <path id="Path_354" data-name="Path 354" d="M8.619,17.643a.976.976,0,1,1-.976-.976A.976.976,0,0,1,8.619,17.643Z" transform="translate(0.167 1.881)" fill="none" stroke="#e2c164" strokeLinecap="round" stroke-linejoin="round" stroke-width="1.667"/>
    <path id="Path_355" data-name="Path 355" d="M17.786,17.643a.976.976,0,1,1-.976-.976A.976.976,0,0,1,17.786,17.643Z" transform="translate(1.738 1.881)" fill="none" stroke="#e2c164" strokeLinecap="round" stroke-linejoin="round" stroke-width="1.667"/>
    <path id="Path_356" data-name="Path 356" d="M.833.833h3.9L7.354,13.9a1.952,1.952,0,0,0,1.952,1.572H18.8A1.952,1.952,0,0,0,20.748,13.9l1.562-8.19H5.714" transform="translate(-0.833 -0.833)" fill="none" stroke="#e2c164" strokeLinecap="round" stroke-linejoin="round" stroke-width="1.667"/>
  </g>
</svg>
