<svg xmlns="http://www.w3.org/2000/svg" width="17.424" height="13.549" viewBox="0 0 17.424 13.549">
  <path id="Icon_awesome-home" data-name="Icon awesome-home" d="M8.48,5.769,2.9,10.362v4.957a.484.484,0,0,0,.484.484l3.389-.009a.484.484,0,0,0,.482-.484V12.415a.484.484,0,0,1,.484-.484H9.678a.484.484,0,0,1,.484.484v2.893a.484.484,0,0,0,.484.485l3.388.009a.484.484,0,0,0,.484-.484V10.358L8.943,5.769A.369.369,0,0,0,8.48,5.769ZM17.289,8.89,14.76,6.806V2.616a.363.363,0,0,0-.363-.363H12.7a.363.363,0,0,0-.363.363v2.2L9.632,2.585a1.452,1.452,0,0,0-1.845,0L.131,8.89A.363.363,0,0,0,.082,9.4l.771.938a.363.363,0,0,0,.511.049L8.48,4.528a.369.369,0,0,1,.463,0l7.115,5.86a.363.363,0,0,0,.511-.048L17.34,9.4a.363.363,0,0,0-.051-.512Z" transform="translate(0.001 -2.254)" fill="#e2c164"/>
</svg>
