<svg id="support_1_" data-name="support (1)" xmlns="http://www.w3.org/2000/svg" width="28.8" height="28.8" viewBox="0 0 28.8 28.8">
  <g id="Group_712" data-name="Group 712" transform="translate(10.862 12.372)">
    <path id="Path_357" data-name="Path 357" d="M196.273,224.346a.369.369,0,0,1-.375.375h-2.412a.378.378,0,0,1-.273-.654l2.016-1.826a.882.882,0,0,0-1.118-1.362c-.15.109-.275.305-.468.339a.38.38,0,0,1-.417-.25c-.095-.272.138-.435.313-.593a1.609,1.609,0,0,1,1.1-.422,1.64,1.64,0,0,1,1.213.538,1.609,1.609,0,0,1,.422,1.1,1.64,1.64,0,0,1-.538,1.213l-1.288,1.165H195.9A.375.375,0,0,1,196.273,224.346Z" transform="translate(-193.094 -219.952)" fill="#e2c164"/>
    <path id="Path_358" data-name="Path 358" d="M255.419,223.509a.375.375,0,0,1-.381.375h-.068v.518a.375.375,0,0,1-.749,0v-.518h-2.132a.376.376,0,0,1-.307-.606c.087-.108,2.492-3.106,2.52-3.133a.6.6,0,0,1,.082-.072.378.378,0,0,1,.586.31v2.752h.068A.379.379,0,0,1,255.419,223.509Zm-1.2-2.057-1.356,1.683h1.356Z" transform="translate(-248.404 -220.007)" fill="#e2c164"/>
  </g>
  <path id="Path_359" data-name="Path 359" d="M26.552,9.885a12.412,12.412,0,0,0-24.3,0A2.654,2.654,0,0,0,0,12.5v1.4a.422.422,0,0,0,.844,0V12.5a1.812,1.812,0,0,1,1.82-1.8h.88v8.754h-.88a1.812,1.812,0,0,1-1.82-1.8v-1.62a.422.422,0,0,0-.844,0v1.62a2.657,2.657,0,0,0,2.663,2.644h.925a1.344,1.344,0,0,0,2.631-.342V10.195a1.344,1.344,0,0,0-2.631-.342H3.113a11.575,11.575,0,0,1,22.574,0h-.476a1.344,1.344,0,0,0-2.631.342v9.758a1.344,1.344,0,0,0,2.631.342h.47a8.619,8.619,0,0,1-8.4,6.749,1.339,1.339,0,0,0-1.267-.9H12.79a1.33,1.33,0,1,0,0,2.66H16.01a1.339,1.339,0,0,0,1.27-.913,9.456,9.456,0,0,0,9.263-7.623A2.654,2.654,0,0,0,28.8,17.651V12.5A2.654,2.654,0,0,0,26.552,9.885Zm-22.164.309a.5.5,0,0,1,.988,0v9.758a.5.5,0,0,1-.988,0ZM16.01,27.956H12.79a.486.486,0,0,1,0-.972H16.01A.486.486,0,0,1,16.01,27.956Zm8.4-8a.5.5,0,0,1-.988,0V10.195a.5.5,0,0,1,.988,0Zm3.544-2.3a1.812,1.812,0,0,1-1.82,1.8h-.88V10.7h.88a1.812,1.812,0,0,1,1.82,1.8Z" fill="#e2c164"/>
  <path id="Path_360" data-name="Path 360" d="M141.3,152.76l2.537,1.118a.426.426,0,0,0,.592-.386v-2.823a6.865,6.865,0,0,0,.367-8.478.422.422,0,0,0-.685.492,6.022,6.022,0,0,1-.417,7.545.422.422,0,0,0-.108.282v2.335l-2.1-.923a.422.422,0,0,0-.311-.012,6.064,6.064,0,1,1,1.437-10.693.422.422,0,0,0,.479-.694A6.913,6.913,0,1,0,141.3,152.76Z" transform="translate(-124.718 -131.452)" fill="#e2c164"/>
</svg>
